<?xml version="1.0" encoding="UTF-8"?>
<svg xmlns="http://www.w3.org/2000/svg" width="970" height="600">
<!-- Based on https://commons.wikimedia.org/wiki/File:Blank_US_Map_(states_only).svg by Heitordp (CC0) -->
<g>
<path d="m213.491 498.82v55.6492l36.425 45.5312m-249.916-169.983h145.7l67.7909 68.8027h87.0152l53.6256 54.6374v46.543" fill="none" stroke="#a9a9a9" stroke-width="2.02361"/>
<g fill="#d0d0d0" stroke="#000" stroke-width="0.75">
<path id="NH" d="m891.196 144.106 0.87926-1.08921 1.10309-3.32987-2.5731-0.92425-0.49071-3.10782-3.92565-1.14498-0.32714-2.78068-7.36062-23.7175-4.65574-14.7147-0.90767-0.0052-0.65427 1.63569-0.65428-0.490706-0.98142-0.981412-1.47211 1.96282-0.0491 5.09146 0.31533 5.73411 1.96282 2.78068v4.08923l-3.7621 5.12254-2.6171 1.145v1.14498l1.14499 1.79926v8.66916l-0.81785 9.32345-0.16357 4.90707 0.98142 1.30856-0.16357 4.57993-0.49071 1.79927 0.98024 0.71759 16.9858-4.47678 2.20054-0.60956 1.86534-2.80607z"/>
<path id="VT" d="m854.453 155.876 0.32044-5.40873-2.92484-10.9115-0.65427-0.32714-2.94425-1.30855 0.81784-2.94424-0.81784-2.1264-2.73192-4.69475 0.98142-3.92566-0.81785-5.23422-2.45354-6.54277-0.81508-4.98062 26.7312-6.81128 0.31234 5.58739 1.93888 2.7746v4.08923l-3.75091 5.1177-2.6171 1.15616-0.0111 1.13379 1.32543 1.53706-0.3146 8.19356-0.61662 9.36815-0.23064 5.62254 0.98141 1.30855-0.16357 4.62465-0.49071 1.70984 1.02616 0.73574-7.52535 1.5245z"/>
<path id="ME" d="m933.733 79.7613 1.96283 2.12639 2.28997 3.76208v1.96283l-2.1264 4.74349-1.96283 0.654275-3.43495 3.10781-4.90706 5.56133h-1.30854c-0.65428 0-0.98142-2.12639-0.98142-2.12639l-1.79925 0.163569-0.98141 1.47212-2.45354 1.47212-0.98141 1.47212 1.63569 1.47211-0.49071 0.65428-0.4907 2.78067-1.96283-0.16357v-1.63569l-0.32714-1.30855-1.47212 0.32714-1.79926-3.27137-2.12638 1.30855 1.30854 1.47211 0.32714 1.14499-0.81784 1.30854 0.32713 3.10781 0.16357 1.63569-1.63568 2.6171-2.94424 0.4907-0.32714 2.94424-5.39777 3.10781-1.30855 0.49071-1.63569-1.47212-3.10781 3.59851 0.98142 3.27138-1.47212 1.30855-0.16357 4.41635-1.13654 6.33325-2.49132-1.1696-0.49071-3.10782-3.92565-1.14498-0.32714-2.78068-7.36062-23.7175-4.75405-14.8126 1.43731-0.11956 1.53166 0.414738v-2.6171l1.32375-4.54953 2.6171-4.74349 1.47212-4.08922-1.96283-2.45353v-6.05204l0.81785-0.981413 0.81785-2.78067-0.16357-1.47212-0.16358-4.90706 1.79926-4.90706 2.94424-8.99628 2.12639-4.25279h1.30856l1.30854 0.163568v1.14498l1.30856 2.28996 2.78066 0.654276 0.81785-0.817845v-0.981412l4.08922-2.94424 1.79925-1.79926 1.47213 0.163569 6.05203 2.45353 1.96283 0.981412 9.15986 30.2602h6.05203l0.81786 1.96282 0.16356 4.90706 2.94423 2.28996h0.81786l0.16356-0.490706-0.4907-1.14498zm-21.1788 30.5034 1.55391-1.55391 1.39034 1.06321 0.57249 2.45354-1.71748 0.89963zm6.78813-5.97027 1.79926 1.88105s1.30856 0.0817 1.30856-0.24537c0-0.32713 0.24535-2.04461 0.24535-2.04461l0.89963-0.81784-0.81785-1.79927-2.04461 0.73606z"/>
<path id="RI" d="m884.388 181.007-3.73941-15.1325 6.34328-1.86692 2.217 1.94986 3.34552 4.37166 2.71963 4.45405-3.03475 1.64397-1.30855-0.16357-1.14497 1.79926-2.45354 1.96282z"/>
<path id="NY" d="m840.182 190.974-1.14499-0.98141-2.61711-0.16357-2.28996-1.96282-1.64985-6.20148-3.49929 0.0916-2.47256-2.74017-19.6142 4.43367-43.5094 8.83273-7.61853 1.24249-0.74688-6.54469 1.44496-1.13867 1.30855-1.14498 0.98142-1.63569 1.79925-1.14498 1.96283-1.79926 0.4907-1.63568 2.12639-2.78067 1.14499-0.98141-0.16357-0.98142-1.30855-3.1078-1.79926-0.16357-1.96282-6.21562 2.94423-1.79926 4.41636-1.47211 4.08923-1.30856 3.27137-0.4907 6.37918-0.16357 1.96283 1.30856 1.63568 0.16356 2.1264-1.30855 2.6171-1.14498 5.2342-0.49071 2.12639-1.79926 1.79926-3.27137 1.63569-1.96282h2.12639l1.96283-1.14499 0.16356-2.28996-1.47211-2.1264-0.32714-1.47211 1.14498-2.1264v-1.47211h-1.79926l-1.79925-0.81784-0.81784-1.14499-0.16357-2.61711 5.88847-5.56133 0.65427-0.81784 1.47213-2.94424 2.94423-4.57993 2.78068-3.76208 2.12638-2.45353 2.44361-1.84716 3.11774-1.26064 5.56133-1.30856 3.27137 0.16357 4.57994-1.47212 7.65449-2.09562 0.52593 5.03846 2.45354 6.54277 0.81784 5.23421-0.98141 3.92566 2.61711 4.57994 0.81784 2.12639-0.81784 2.94425 2.94424 1.30855 0.65428 0.32714 3.10782 11.1227-0.54262 5.1194-0.49071 10.9591 0.81784 5.56136 0.81784 3.59852 1.47213 7.36061v8.17846l-1.14499 2.28997 1.86104 2.01631 0.80595 1.69823-1.96281 1.79926 0.32713 1.30855 1.30855-0.32714 1.47212-1.30854 2.28996-2.61711 1.14499-0.65427 1.63568 0.65427 2.28997 0.16357 8.01486-3.92565 2.94424-2.78067 1.30855-1.47211 4.25279 1.63568-3.43495 3.59851-11.1227 8.34201-2.6171 0.98142-5.88848 1.96282-4.08921 1.14498-1.18861-0.53922-0.2469-3.73207 0.4907-2.78068-0.16356-2.12639-2.84673-1.71905-4.57993-0.98142-3.92566-1.14498z"/>
<path id="PA" d="m834.864 227.344 1.32387-0.27419 2.35702-1.26805 1.22619-2.51238 1.63569-2.28997 3.27138-3.10781v-0.81784l-2.45354-1.63569-3.59852-2.45354-0.98141-2.61711-2.78068-0.32713-0.16357-1.14499-0.81784-2.78067 2.28998-1.14498 0.16357-2.45354-1.30857-1.30856 0.16357-1.63569 1.96284-3.10781v-3.10782l2.72947-2.67711-0.93114-0.68295-2.55388-0.19519-2.32157-1.96282-1.56822-6.18825-3.54595 0.1017-2.48421-2.73524-18.3045 4.24732-43.5094 8.83274-8.99631 1.47212-0.628-6.59837-5.42583 5.12747-1.30856 0.4907-4.25189 3.04441 2.94512 19.3634 2.51095 9.84421 3.61397 19.4889 3.3079-0.64521 12.0846-1.52021 38.3743-7.75568 15.0518-2.85665 8.39833-1.64151 0.27026-0.24135 2.12641-1.6357z"/>
<path id="NJ" d="m839.473 190.685-2.34997 2.76655v3.10781l-1.96284 3.10781-0.16357 1.6357 1.30857 1.30855-0.16357 2.45355-2.28997 1.14497 0.81784 2.78067 0.16357 1.14499 2.78068 0.32714 0.98141 2.6171 3.59852 2.45355 2.45353 1.63568v0.81785l-3.01842 2.72839-1.63569 2.28996-1.47213 2.78068-2.28997 1.30855-0.4679 1.62139-0.24537 1.22678-0.61642 2.63751 1.10516 2.27068 3.27138 2.94424 4.90706 2.28996 4.08922 0.65428 0.16357 1.47211-0.81785 0.98141 0.32714 2.78067h0.81784l2.1264-2.45352 0.81784-4.90707 2.78067-4.08922 3.10781-6.54275 1.14498-5.56133-0.65427-1.14499-0.16357-9.48699-1.6357-3.43494-1.14497 0.81784-2.78067 0.32714-0.49071-0.4907 1.14499-0.98142 2.12639-1.96282 0.0638-1.10675-0.38893-3.47437 0.58014-2.78068-0.11885-1.99225-2.84069-1.77102-5.15225-1.18964-4.18628-1.39793z"/>
<path id="CT" d="m884.386 180.974-3.72084-15.0544-4.77452 0.93118-21.4794 4.79908 1.01199 3.26374 1.47213 7.36062 0.17886 9.07277-1.23442 2.20054 1.94347 1.95515 4.32195-3.95174 3.59851-3.27138 1.96282-2.1264 0.81785 0.65428 2.78066-1.47212 5.23421-1.14498z"/>
<path id="MA" d="m910.243 175.299 2.19755-0.69398 0.46266-1.73491 1.04095 0.11566 1.04094 2.31323-1.27226 0.46264-3.93248 0.11567zm-9.48419 0.80962 2.3132-2.6602h1.61927l1.85058 1.50359-2.42888 1.04094-2.19756 1.04095zm-35.2099-22.2477 17.8552-4.69546 2.28998-0.65428 1.93668-2.82871 3.78088-1.68294 2.92334 4.46493-2.45353 5.2342-0.32714 1.47212 1.96283 2.6171 1.14498-0.81784h1.79926l2.28996 2.61709 3.92566 6.05205 3.59851 0.49071 2.28995-0.98141 1.79927-1.79927-0.81786-2.78066-2.12638-1.63569-1.47213 0.81784-0.98141-1.30855 0.49071-0.4907 2.12639-0.16357 1.79926 0.81784 1.96283 2.45354 0.9814 2.94424 0.32714 2.45352-4.25278 1.47213-3.92565 1.96282-3.92565 4.57993-1.96283 1.47211v-0.98141l2.45353-1.47212 0.49071-1.79925-0.81784-3.10781-2.94424 1.47211-0.81785 1.47213 0.49071 2.28996-2.09072 1.01223-2.77963-4.58057-3.43496-4.41636-2.09494-1.83386-6.61039 1.89834-5.15244 1.0632-20.9192 4.64642-0.67564-4.82414 0.65427-10.7138 4.3399-0.89964z"/>
<path id="FL" d="m768.786 444.327 2.29241 7.40499 3.77372 9.85726 5.39777 9.48698 3.76208 6.37919 4.90707 5.56134 4.08921 3.76208 1.63569 2.94424-1.14498 1.30855-0.81784 1.30854 2.94423 7.52417 2.94424 2.94423 2.6171 5.39778 3.59851 5.88848 4.57992 8.342 1.30856 7.68773 0.49071 12.1041 0.65427 1.79926-0.32714 3.43494-2.45353 1.30856 0.32713 1.96282-0.65427 1.96283 0.32714 2.45352 0.4907 1.96283-2.78066 3.27138-3.10781 1.47211-3.92565 0.16357-1.47212 1.63569-2.45353 0.98141-1.30855-0.4907-1.14498-0.98141-0.32714-2.94424-0.81785-3.43495-3.43494-5.2342-3.59852-2.28996-3.92564-0.32713-0.81785 1.30854-3.1078-4.41635-0.65428-3.59852-2.6171-4.08921-1.79925-1.14499-1.63569 2.1264-1.79926-0.32714-2.12639-5.07064-2.94424-3.92565-2.94424-5.39776-2.6171-3.10781-3.59851-3.76208 2.12639-2.45353 3.27138-5.56135-0.16357-1.63568-4.57992-0.98141-1.6357 0.65427 0.32715 0.65428 2.61709 0.98141-1.47211 4.57993-0.81784 0.4907-1.79927-4.08921-1.30854-4.90707-0.32714-2.78067 1.47212-4.74349v-9.65056l-3.10781-3.76209-1.30855-3.1078-5.2342-1.30855-1.96282-0.65427-1.6357-2.61711-3.43494-1.63569-1.14498-3.43494-2.78067-0.98141-2.45354-3.76208-4.25278-1.47212-2.94424-1.47212h-2.61709l-4.08923 0.81785-0.16357 1.96282 0.81785 0.98141-0.49071 1.14499-3.1078-0.16357-3.76208 3.59851-3.59852 1.96282h-3.92565l-3.27138 1.30856-0.32714-2.78067-1.63568-1.96283-2.94424-1.14498-1.63568-1.47213-8.17845-3.92565-7.68773-1.79925-4.41635 0.65428-6.05205 0.4907-6.05205 2.1264-3.52031 0.62019-0.24073-8.14477-2.6171-1.96282-1.79926-1.79926 0.32714-3.10782 10.3048-1.30854 25.8439-2.94424 6.8699-0.65428 5.50017 0.28358 2.6171 3.92566 1.47212 1.47212 8.19375 0.5213 10.9475-0.65428 21.7663-1.30855 5.51001-0.68233 5.16787 0.20692 0.43187 2.94424 2.25936 0.81784 0.23771-4.68465-1.54626-4.22221 1.32385-1.45683 5.62019 0.46012zm12.6935 133.968 2.45355-0.65427 1.30854-0.24536 1.47214-2.37176 2.37175-1.63569 1.30855 0.49072 1.71748 0.32713 0.40892 1.0632-3.51673 1.22677-4.25281 1.47212-2.37175 1.22678zm13.658-5.07065 1.22677 1.06321 2.78068-2.1264 5.39778-4.25281 3.76209-3.92567 2.53533-6.70634 0.98142-1.71748 0.16357-3.43495-0.73607 0.4907-0.98141 2.86247-1.47213 4.66172-3.27139 5.31602-4.41636 4.25279-3.43496 1.96283z"/>
<path id="VA" d="m841.456 269.21-0.14561-1.97001 6.52961-2.57998-0.77951 3.25583-2.95441 3.82372-0.42303 4.63995 0.4672 3.43046-1.84955 5.03692-2.18982 1.93876-1.48769-4.69559 0.45115-5.51343 1.60574-4.23245zm3.37962 28.6354-58.8609 12.7239-37.8688 5.34139-6.75716-0.37961-2.61577 1.94912-7.42576 0.22329-8.48106 0.98921-11.0438 1.63368 10.593-5.67743-0.0132-2.09943 1.53799-2.17146 10.6784-11.6372 3.99331 4.53032 3.82767 0.97535 2.57348-1.15378 2.26363-1.32663 2.56655 1.35938 3.96038-1.44462 1.89888-4.61012 2.63162 0.54639 2.88895-2.15641 1.82051 0.49943 2.86058-3.71997 0.35236-2.1077-0.97503-1.29063 1.0146-1.88866 5.33653-12.4221 0.62405-5.80278 1.2434-0.52972 2.20425 2.47171 3.98232-0.30472 1.95198-7.66304 2.82697-0.56748 1.06214-2.77342 2.61028-2.37459 2.80455-5.76241 0.0859-5.12737 9.93744 3.86794c0.68889 0.34444 0.84272-5.10875 0.84272-5.10875l3.69567 1.6172 0.0691 2.97284 5.85253 1.31483 2.15813 1.19008 1.67951 2.07996-0.66228 3.69174-1.97042 2.62157 0.11114 2.08337 0.59592 1.87478 5.03752 1.28341 4.50381 0.0404 3.10506 0.96995 1.96645 0.31296 0.72325 3.12491 3.2281 0.40728 0.87831 1.21419-0.44467 4.74544 1.39095 1.11557-0.4846 1.95318 1.24392 0.79909-0.22441 1.40094-2.7258-0.096 0.0901 1.63459 2.30791 1.56109 0.12298 1.42856 1.79404 1.80646 0.49759 2.55392-2.58318 1.39762 1.59078 1.51194 5.8695-1.70573z"/>
<path id="WV" d="m770.171 241.788 1.12513 5.00289 1.09623 6.10253 2.15544-2.6108 2.28996-3.10782 2.56834-0.62281 1.47213-1.47212 1.79926-2.6171 1.46203 0.65427 2.94424-0.32714 2.61712-2.12639 2.03058-1.47042 1.86701-0.49071 1.31931 1.02847 3.68626 1.84313 1.96283 1.79926 1.39034 1.30855-0.77071 5.62051-5.90379-2.57122-4.29536-1.64117-0.10234 5.23956-2.78007 5.60209-2.5599 2.45531-1.20616 2.78184-2.67479 0.506-0.90843 3.6444-1.05555 3.9963-4.01508 0.34476-2.35116-2.46767-1.0838 0.56601-0.64014 5.53427-1.36623 3.57622-5.01693 11.0843 0.90727 1.1744-0.20829 1.93107-2.84184 3.93032-1.82985-0.55071-3.00309 2.18523-2.57239-0.57896-2.02283 4.60934s-3.29778 1.44711-3.96922 1.38387c-0.1624-0.0153-2.49824-1.26385-2.49824-1.26385l-2.3641 1.39566-2.43825 1.05672-3.7889-0.89961-1.13463-1.18207-2.2181-3.05905-3.17969-2.01159-1.73177-3.66601-4.33546-3.50913-0.65428-2.28997-2.61711-1.47212-0.81785-1.63568-0.24535-5.316 2.20818-0.0818 1.96284-0.81784 0.16357-2.78067 1.63568-1.47212 0.16357-5.07064 0.98141-3.92566 1.30856-0.65428 1.30854 1.14498 0.49072 1.79926 1.79926-0.98142 0.4907-1.63568-1.14497-1.79926v-2.45353l0.98141-1.30856 2.28996-3.43495 1.30855-1.47211 2.12641 0.4907 2.28995-1.6357 3.10781-3.43494 2.28998-3.92566 0.32713-5.7249 0.49071-5.07065v-4.7435l-1.14498-3.10781 0.98141-1.47213 1.29863-1.30855 3.53246 20.0612 4.68568-0.76002z"/>
<path id="NC" d="m844.838 297.79 2.10961 4.97539 3.59851 6.54276 2.45353 2.45353 0.65427 2.28997-2.45353 0.16357 0.81785 0.65427-0.32714 4.25279-2.6171 1.30854-0.65428 2.1264-1.30854 2.94424-3.76209 1.63568-2.45353-0.32713-1.47212-0.16357-1.63569-1.30855 0.32714 1.30855v0.98142h1.96283l0.81784 1.30854-1.96283 6.37919h4.25279l0.65428 1.63568 2.28996-2.28996 1.30855-0.49071-1.96283 3.59851-3.1078 4.90707h-1.30855l-1.14499-0.4907-2.78066 0.65427-5.23421 2.45353-6.54275 5.39777-3.43494 4.74349-1.96282 6.54275-0.49071 2.45354-4.7435 0.4907-5.5175 1.35244-10.0638-8.29936-12.7584-7.68774-2.94424-0.81785-12.7584 1.47213-4.32694 0.759-1.63568-3.27139-3.00542-2.14168-16.684 0.4907-7.36061 0.81784-9.15986 4.57995-6.21563 2.61709-21.4275 2.61711 0.50599-4.10219 1.79926-1.47211 2.78068-0.65428 0.65428-3.76209 4.25279-2.78067 3.92565-1.47213 4.25281-3.59851 4.41635-2.1264 0.65427-3.10782 3.92566-3.92565 0.65428-0.16357s0 1.14499 0.81785 1.14499c0.81784 0 1.96283 0.32714 1.96283 0.32714l2.28996-3.59853 2.1264-0.65428 2.28996 0.32715 1.6357-3.59851 2.94424-2.61712 0.49071-2.1264 0.18971-3.69125 4.32698-0.0228 7.28357-0.86589 15.9432-2.27902 15.3147-2.1112 21.8959-4.77506 20.2192-4.30884 11.3089-2.43421zm4.32087 33.5986 2.61711-2.53533 3.18959-2.61711 1.55391-0.65427 0.16357-2.04462-0.65427-6.21563-1.47213-2.37175-0.65428-1.88105 0.73606-0.24536 2.78069 5.56136 0.40892 4.49815-0.16357 3.43496-3.43496 1.5539-2.86246 2.45355-1.14498 1.22677z"/>
<path id="TN" d="m704.902 322.011-52.5056 5.07065-15.9456 1.79925-4.67576 0.51876-3.91401-0.028-0.22358 4.14924-8.282 0.26713-7.03347 0.65427-8.18634-0.12532-1.43046 7.15635-1.71626 5.54474-3.33204 2.78331-1.36466 4.43278-0.32714 2.6171-4.08923 2.28995 1.47212 3.59853-0.98141 4.41636-0.97981 0.79897 109.435-10.5304 0.40803-4.00163 1.83211-1.50798 2.8676-0.7583 0.67987-3.76085 4.14698-2.73689 4.0947-1.51167 4.13178-3.61248 4.48846-2.04937 0.52741-3.10355 4.11258-4.03203 0.5573-0.11552s0.0316 1.14498 0.84946 1.14498c0.81785 0 1.96283 0.35875 1.96283 0.35875l2.28997-3.63014 2.09478-0.65427 2.30197 0.29869 1.61717-3.57456 2.99014-2.67512 0.42666-1.962 0.3126-3.75496-2.17189-0.20213-2.63239 2.05228-7.07586 0.0294-18.576 2.41499z"/>
<path id="GA" d="m680.228 359.749v2.20818l0.16357 2.12641 0.65427 3.43494 3.43495 8.01488 2.45354 9.97771 1.47211 6.21563 1.6357 4.90706 1.47212 7.03347 2.1264 6.37919 2.6171 3.43495 0.49071 3.43495 1.96283 0.81784 0.16356 2.12641-1.79926 4.90706-0.4907 3.27138-0.16357 1.96283 1.63569 4.41637 0.32714 5.39777-0.81785 2.45354 0.65428 0.81785 1.47213 0.81784 0.20711 3.25608 2.25937 3.38907 2.27701 2.18757 8.01488 0.16357 10.9475-0.65428 21.7663-1.30854 5.51-0.68233 4.63128 0.028 0.16357 2.94424 2.6171 0.81784 0.32714-4.41636-1.63569-4.57993 1.14498-1.63569 5.88848 0.81785 5.03617 0.32153-0.78458-6.37315 2.28996-10.1413 1.47213-4.2528-0.49072-2.61709 3.37377-6.31801-0.51632-1.36764-1.936 0.7129-2.61709-1.30857-0.65429-2.12639-1.30854-3.59852-2.28998-2.12639-2.61709-0.65428-1.63569-4.90707-2.95954-6.40978-4.25279-1.96283-2.12641-1.96283-1.30855-2.6171-2.12639-1.96283-2.28997-1.30856-2.28996-2.94424-3.10781-2.28995-4.57994-1.79927-0.49071-1.47212-2.45353-2.94424-0.49071-1.47212-3.43495-5.02916-3.56142 0.10038-3.79924-2.38396-1.43502-1.30854-0.32714-1.79927 0.88108-1.96281 2.25293-1.12325-0.64143-2.12198z"/>
<path id="SC" d="m773.973 412.983-1.79804 0.98095-2.6171-1.30856-0.65428-2.1264-1.30854-3.59851-2.28998-2.12641-2.6171-0.65427-1.63569-4.90706-2.78068-6.05206-4.25278-1.96284-2.12641-1.96282-1.30855-2.6171-2.1264-1.96284-2.28996-1.30855-2.28997-2.94424-3.10781-2.28995-4.57994-1.79927-0.4907-1.47212-2.45353-2.94424-0.49071-1.47213-3.43496-5.2342-3.43494 0.16357-4.08923-2.45355-1.30855-1.30854-0.32713-1.79926 0.81784-1.96282 2.28997-0.98143-0.51685-2.3161 5.83618-2.36416 9.22311-4.64317 7.8665-0.81785 16.3046-0.42747 2.6694 1.8996 1.69892 3.39786 4.35313-0.61718 12.7584-1.47214 2.94424 0.81785 12.7584 7.68775 10.2274 8.21756-5.48516 5.52277-2.61711 6.21561-0.4907 6.37919-1.63568 0.81784-1.14499 2.78067-2.45353 0.65427-2.1264 3.59852-2.78067 2.78067-2.28995 3.43494-1.6357 0.81784-3.59851 3.43495-2.94424 0.16357 0.98142 3.27137-5.07064 5.56135z"/>
<path id="KY" d="m734.564 298.756-2.32039 2.43003-3.62043 4.04119-4.98268 5.52918-1.23012 1.73602-0.0632 2.12639-4.43156 2.18964-5.72491 3.43495-7.31724 1.82008-52.4802 4.95669-15.9456 1.79925-4.67575 0.51877-3.91402-0.028-0.22963 4.2701-8.27596 0.14626-7.03347 0.65428-8.08176-0.0609 1.22203-1.33567 2.52905-1.55904 0.23133-3.23851 0.92528-1.85057-1.62579-2.56887 0.8113-1.92932 2.28998-1.79925 2.12638-0.65428 2.78068 1.30855 3.59852 1.30855 1.14499-0.32714 0.16356-2.28996-1.30855-2.45354 0.32713-2.28996 1.96283-1.47212 2.61712-0.65428 1.63568-0.65427-0.81784-1.79927-0.65427-1.96283 1.5244-1.00755c3e-3 -0.0375 1.26876-3.56387 1.25291-3.70099l3.08926-1.49613 5.38259-0.98141 4.54709-0.49071 1.40887 1.64664 1.54631 0.88108 1.60955-3.1449 3.2247-1.29776 2.23112 1.50155 0.41541 1.01083 1.18737-0.26712-0.16358-2.98779 3.16783-1.76984 2.17345-1.08615 1.54741 1.68041 3.35732-0.0447 0.59426-1.5898-0.37185-2.28995 2.63123-4.0457 4.83294-3.47848 0.71428-4.89295 2.95955-0.46129 3.83621-1.66511 2.47217-1.7284-0.20068-1.5834-1.15593-1.47212 0.5725-3.03026 4.23425-0.11889 2.32706-0.7546 3.3869 1.44597 2.07836 4.41636 5.19287 0.0109 2.07522 2.23425 1.63452-0.14944 2.6324-1.29326 5.29888 0.58014 2.60532 0.22008 1.7075-2.08051 2.64885-1.44272 1.904-0.71544 0.65427 2.87011 2.06755 1.07084 2.67396 2.10707 0.11885 5.74021 0.81785 1.59097 2.62029 1.57465 0.78074 2.32159 4.209 3.47752 1.82662 3.66601z"/>
<path id="AL" d="m638.759 465.851-1.50819-14.4906-2.78068-18.974 0.16357-14.2305 0.81784-31.4052-0.16357-16.8476 0.16704-6.49484 45.0096-3.66217-0.14954 2.20818 0.16356 2.12641 0.65429 3.43494 3.43495 8.01488 2.45353 9.97772 1.47212 6.21562 1.63568 4.90707 1.47214 7.03347 2.12639 6.37918 2.6171 3.43497 0.4907 3.43493 1.96284 0.81785 0.16357 2.1264-1.79927 4.90707-0.4907 3.27139-0.16357 1.96282 1.6357 4.41637 0.32714 5.39777-0.81786 2.45354 0.65429 0.81784 1.47211 0.81784 0.33202 2.92292-5.66374-0.35772-6.8699 0.65428-25.8439 2.94423-10.5345 1.42338-0.224 2.91137 1.79926 1.79926 2.61711 1.96282 0.58771 8.02911-5.60748 2.60327-2.78066-0.32714 2.78066-1.96283v-0.98141l-3.10779-6.05204-2.28997-0.65428-1.47213 4.41636-1.30854 2.78067-0.65427-0.16357z"/>
<path id="MS" d="m639.014 464.767-0.25726 1.27098h-5.2342l-1.47212-0.81785-2.1264-0.32713-6.86989 1.96282-1.79925-0.81784-2.6171 4.25278-1.11555 0.78721-1.1371-2.51735-1.15661-3.93247-3.46982-3.2385 1.1566-5.61-0.69396-0.92528-1.85057 0.23132-8.01138 0.88368-24.8363 0.37778-0.77883-2.25163 0.88368-8.47569 3.15363-5.73977 5.28878-9.25285-0.45101-2.46132 1.25147-0.66399 0.44101-1.94213-2.34484-2.10352-0.11647-2.16676-1.85739-4.16974-0.11029-6.03316 1.3432-2.51025-0.22594-3.45607-1.79037-3.11898 1.54443-1.49971-1.58915-2.52904 0.46265-1.67172 1.59602-6.60341 2.5153-2.06038-0.64925-2.39491 3.70115-5.36513 2.86529-1.37243-0.22358-1.69493-0.29153-1.70095 2.91001-5.63339 2.37341-1.24605 0.15342-0.90355 37.7843-3.92698 0.18704 6.3575 0.16357 16.8476-0.81784 31.4052-0.16357 14.2305 2.78068 18.974z"/>
<path id="AR" d="m600.835 347.102-4.02686 0.72516-5.1725-0.64151 0.42567-1.62098 3.01492-2.59699 0.95452-3.69941-1.85057-3.00718-79.3432 2.54453 1.61925 6.93966-1e-5 8.32757 1.38794 11.1035 0.23132 38.2836 2.31322 1.96623 3.00717-1.38792 2.77587 1.15661 0.68837 6.65089 56.2778-1.15406 1.15916-2.11505-0.29001-3.59141-1.84718-3.00718 1.61756-1.50275-1.61756-2.54114 0.69228-2.53946 1.38454-5.6716 2.54792-2.08698-0.69397-2.31152 3.70115-5.43521 2.77586-1.38454-0.11482-1.51121-0.34952-1.84719 2.89067-5.66482 2.43141-1.27142 0.38867-3.46809 1.79157-1.25636-3.18063-0.48999-1.3573-4.05778 2.83719-2.40476 0.55675-2.04304 1.29458-4.09438z"/>
<path id="LA" d="m615.144 464.581-3.32338-3.20351 1.02183-5.56516-0.66916-0.90362-9.371 1.01844-25.3238 0.46434-0.69227-2.42295 0.92359-8.55551 3.35502-6.01604 5.09075-8.79361-0.58084-2.42633 1.27142-0.68889 0.46435-1.97554-2.31323-2.08019-0.11311-1.96538-1.85227-4.39681-0.14879-6.41342-56.1286 0.93487 0.0289 9.68658 0.69396 9.48418 0.69397 3.93246 2.54454 4.16379 0.92528 5.08908 4.39511 5.5517 0.23132 3.2385 0.69396 0.69397-0.69396 8.55889-3.00718 5.08907 1.61925 2.0819-0.69397 2.54452-0.69396 7.40229-1.38793 3.23849 0.1239 3.65914 4.7418-1.53809 12.2564 0.20945 10.4684 3.59852 6.54275 1.14498 3.76208-1.47212 3.27138 1.14499 3.27137 0.98141 0.81784-2.1264-3.27137-1.14498-2.6171 0.49071-2.78068-1.63569s0.16358-1.30855 0.81786-1.47212c0.65427-0.16357 3.1078-0.98141 3.1078-0.98141l1.79925 1.47211 1.79927-0.98141 3.27137 0.65428 1.47212 2.45353 0.32713 2.28997 4.57993 0.32713 1.79926 1.79926-0.81784 1.63569-1.30856 0.81784 1.63569 1.63568 8.50557 3.59852 3.59852-1.30855 0.98142-2.45353 2.61709-0.65428 1.79926-1.47211 1.30855 0.98141 0.81784 2.94424-2.28996 0.81784 0.65428 0.65427 3.43494-1.30854 2.28997-3.43495 0.81784-0.4907-2.1264-0.32714 0.81784-1.63569-0.16357-1.47212 2.1264-0.4907 1.14498-1.30856 0.65427 0.81784s-0.16357 3.10781 0.65429 3.10781c0.81784 0 4.25278 0.65428 4.25278 0.65428l4.08922 1.96282 0.98141 1.47213h2.94424l1.14499 0.98141 2.28995-3.10781v-1.47213h-1.30854l-3.43495-2.78066-5.88848-0.81785-3.27137-2.28995 1.14499-2.78068 2.28995 0.32714 0.16357-0.65427-1.79925-0.98141v-0.49072h3.27137l1.79926-3.1078-1.30855-1.96282-0.32714-2.78068-1.47212 0.16357-1.96282 2.1264-0.65427 2.6171-3.10781-0.65428-0.98142-1.79925 1.79926-1.96283 1.9258-3.48627-1.07363-2.44075z"/>
<path id="OK" d="m384.833 324.609-16.8811-1.28834-0.89061 11.0817 20.707 1.17054 32.434 1.31899-2.36216 24.7069-0.46265 18.0431 0.23133 1.61925 4.39511 3.70114 2.08189 1.1566 0.69396-0.23132 0.69397-2.0819 1.38793 1.85058h2.08189v-1.38793l2.77585 1.38793-0.46263 3.93246 4.16378 0.23132 2.54453 1.15661 4.16379 0.69397 2.54453 1.85057 2.31322-2.08189 3.46982 0.69396 2.54454 3.46982h0.92528v2.31322l2.31321 0.69395 2.31321-2.3132 1.85058 0.69395h2.54453l0.92529 2.54455 6.37545 2.10351 1.38793-0.69396 1.85057-4.16378h1.15661l1.15661 2.08188 4.16379 0.69397 3.70113 1.38793 3.00718 0.92529 1.85058-0.92529 0.69396-2.54453h4.39511l2.08188 0.92528 2.77586-2.0819h1.15661l0.69397 1.61925h4.16378l1.61925-2.08188 1.85058 0.46263 2.08189 2.54455 3.23849 1.85056 3.23851 0.92529 1.964 1.13214-0.3937-37.6563-1.38794-11.1035-0.16235-8.97708-1.45689-6.6149-0.78739-7.26439-0.0689-3.86127-12.2801 0.3225-46.9579-0.46263-45.5706-2.08191z"/>
<path id="TX" d="m365.732 334.476 22.9586 1.09876 31.4597 1.15662-2.36216 23.7327-0.30027 18.3678 0.0689 2.10636 4.3951 3.86351 2.0101 1.46424 1.19819-0.5663 0.37778-1.83917 1.15378 1.82491 2.13657 0.0444-3e-3 -1.46417 1.68966 0.97869 1.15214 0.4137-0.36351 4.01448 4.13644 0.0946 2.95986 1.2113 4.00142 0.53158 2.40949 2.10352 2.14917-2.10068 3.76892 0.62217 2.24712 3.26301 1.08765 0.32475-0.16236 1.98847 2.23974 0.80164 2.35765-2.07905 2.1582 0.62217 2.2557 0.0359 0.94408 2.46419 6.40279 2.13941 1.61186-0.77598 1.50705-4.22703h0.34474l0.91719 0.0826 1.24356 2.09305 3.97627 0.67313 3.37639 1.13613 3.46607 1.21009 1.86231-0.98651 0.72218-2.54452 4.50579 0.0447 1.83009 0.94176 2.83229-2.13137 1.11667 0.0447 0.86109 1.62402h4.10258l1.5368-2.05257 1.88941 0.41205 1.969 2.43165 3.56213 2.06828 2.89251 0.81937 1.53149 0.80928 2.47558 2.0209 3.07896-1.34347 2.72286 1.15233 0.57046 6.17801-0.0403 9.8167 0.69396 9.64655 0.71047 3.64767 2.70691 4.47203 0.90878 5.00917 4.26572 5.6034 0.19833 3.18206 0.75518 0.79512-0.73869 8.47899-2.906 5.0656 1.55107 2.17828-0.63752 2.36568-0.67748 7.49172-1.52207 3.37741 0.29836 3.54369-5.73175 1.60389-9.9777 4.57994-0.98141 1.96282-2.6171 1.96282-2.12639 1.47212-1.30856 0.81784-5.7249 5.39778-2.78067 2.12639-5.39777 3.27137-5.7249 2.45353-6.37919 3.43495-1.79925 1.47212-5.88848 3.59852-3.43494 0.65427-3.92565 5.56133-4.08922 0.32715-0.98142 1.96282 2.28997 1.96283-1.47213 5.56133-1.30854 4.57993-1.14498 3.92565-0.81784 4.57992 0.81784 2.45354 1.79925 7.03346 0.98142 6.2156 1.79925 2.78067-0.98141 1.47213-3.10781 1.96282-5.72491-3.92565-5.56133-1.14498-1.30856 0.4907-3.27137-0.65427-4.25279-3.10781-5.23419-1.14497-7.68774-3.43495-2.12639-3.92566-1.30856-6.54274-3.27137-1.96283-0.65428-2.28997 0.65428-0.65427 0.32714-3.43494-1.30856-0.65428-0.65427-0.98141 1.30855-4.41636-1.63568-2.28996-3.27138-1.30855-3.43495-4.41636-3.59851-6.70632-4.25278-2.6171 0.16356-1.96282-5.39777-12.4312-0.81784-4.25279-1.79925-1.96282-0.16357-1.47212-6.05205-5.39777-2.6171-3.1078v-1.14499l-2.6171-2.12639-6.86989-1.14499-7.52416-0.65427-3.10781-2.28996-4.57993 1.79925-3.59851 1.47213-2.28996 3.27136-0.98141 3.76209-4.41636 6.21561-2.45353 2.45353-2.61711-0.98141-1.79925-1.14498-1.96283-0.65428-3.92565-2.28995v-0.65429l-1.79925-1.96282-5.2342-2.12639-7.52417-7.8513-2.28996-4.74349v-8.17845l-3.27138-6.54275-0.4907-2.78066-1.63569-0.98142-1.14498-2.12639-5.07063-2.1264-1.30855-1.63568-7.19703-8.01488-1.30855-3.27137-4.7435-2.28997-1.47212-4.41639-2.61713-2.94422-1.96281-0.49069-0.65689-4.73286 8.09633 0.69399 29.3777 2.77584 29.3778 1.61925 2.25989-19.6916 3.93243-56.2108 1.61928-18.9686 1.38794 0.0289m100.198 232.374-0.57249-7.19705-2.78068-7.27884-0.5725-7.11526 1.55391-8.34203 3.35318-6.9517 3.51673-5.47958 3.18961-3.59853 0.65427 0.24536-4.82529 6.70634-4.41637 6.62457-2.04462 6.70633-0.32714 5.23423 0.89963 6.21563 2.61711 7.27884 0.49071 5.23421 0.16356 1.47213z"/>
<path id="DE" d="m835.372 230.974 0.37266-2.17223 0.3795-1.71102-1.64216 0.40246-1.63453 0.47308-2.23231 1.78512 1.74043 5.10241 2.28998 5.72491 2.12638 9.81415 1.63571 6.37921 5.07063-0.16357 6.21463-1.19462-2.29096-7.47346-0.98142 0.4907-3.59851-2.45352-1.79925-4.7435-1.96283-3.59851-3.18427-2.9042-0.87436-2.12288z"/>
<path id="MD" d="m849.705 255.394-6.07948 1.21806-5.20361 0.11884-1.86532-7.00404-1.94753-9.27756-2.60299-6.2615-1.30359-4.45025-7.59462 1.64151-15.0518 2.85665-37.8935 7.64003 1.14466 5.07082 0.98141 5.7249 0.32713-0.32713 2.12641-2.45353 2.28996-2.64856 2.45353-0.62283 1.47214-1.47212 1.79925-2.6171 1.30854 0.65428 2.94424-0.32715 2.61712-2.12638 2.03058-1.47043 1.86701-0.4907 1.66376 1.14328 2.94424 1.47212 1.96282 1.79926 1.22677 1.55391 4.17101 1.71747v2.94424l5.56134 1.30855 1.15795 0.54838 1.42857-2.05226 2.91599 1.99341-1.29326 2.51123-0.7743 4.03271-1.79925 2.6171v2.1264l0.65427 1.79926 5.12373 1.37169 4.36199-0.0624 3.10779 0.98142 2.1264 0.32713 0.98141-2.1264-1.47211-2.12638v-1.79926l-2.45354-2.1264-2.12638-5.56133 1.30854-5.39778-0.16357-2.12639-1.30854-1.30855s1.47211-1.63569 1.47211-2.28996c0-0.65428 0.49071-2.1264 0.49071-2.1264l1.96283-1.30854 1.96282-1.6357 0.4907 0.98142-1.47211 1.63569-1.30855 3.76208 0.32714 1.14498 1.79925 0.32713 0.4907 5.56134-2.12639 0.98141 0.32714 3.59852 0.49071-0.16357 1.14497-1.96282 1.6357 1.79925-1.6357 1.30856-0.32713 3.43494 2.6171 3.43495 3.92565 0.4907 1.63569-0.81784 3.27476 4.23231 1.37438 0.54263 6.73222-2.82997 2.03127-4.07137zm-16.1581 9.1353 1.14497 2.53533 0.16357 1.79926 1.14499 1.88105s0.89964-0.89964 0.89964-1.22677c0-0.32714-0.73606-3.10782-0.73606-3.10782l-0.73607-2.37176z"/>
<path id="DC" d="m815.332 253.805-1.88022-1.8457-1.24718-0.69439 1.46004-2.04635 2.9232 1.9715z"/>
<path id="MI" d="m588.485 83.0277 1.85058-2.08189 2.19756-0.809627 5.43606-3.93248 2.3132-0.578306 0.46266 0.462652-5.20474 5.20474-3.35417 1.96623-2.0819 0.925291zm87.1916 32.5074 0.65428 2.53532 3.27138 0.16357 1.30856-1.22677s-0.0817-1.47212-0.40892-1.6357c-0.32715-0.16357-1.63569-1.88104-1.63569-1.88104l-2.20819 0.24535-1.6357 0.16357-0.32714 1.14499zm-101.486-3.00912 0.72474-0.58725 2.78067-0.81785 3.59851-2.28995v-0.98142l0.65429-0.65428 6.05203-0.98141 2.45354-1.96283 4.41635-2.12638 0.16357-1.30856 1.96283-2.94424 1.79925-0.817843 1.30856-1.79926 2.28995-2.28996 4.41637-2.45353 4.74349-0.490706 1.14498 1.14498-0.32714 0.981413-3.76208 0.981412-1.47211 3.10781-2.28997 0.817844-0.49071 2.45353-2.45353 3.27138-0.32714 2.6171 0.81784 0.49071 0.98142-1.14498 3.59852-2.94424 1.30854 1.30855h2.28997l3.27138 0.9814 1.47211 1.14499 1.47211 3.10781 2.78068 2.78066 3.92565-0.16357 1.47212-0.98141 1.63568 1.30855 1.6357 0.49072 1.30854-0.81786h1.14498l1.63569-0.98141 4.08922-3.59851 3.43495-1.14498 6.70632-0.32713 4.57992-1.96283 2.6171-1.30855 1.47213 0.16357v5.7249l0.4907 0.32714 2.94423 0.81785 1.96283-0.49072 6.21562-1.63568 1.14497-1.14498 1.47213 0.49071v7.03345l3.27138 3.10781 1.30854 0.65427 1.30855 0.98141-1.30855 0.32714-0.81784-0.32714-3.76208-0.4907-2.1264 0.65427-2.28997-0.16357-3.27137 1.47213h-1.79925l-5.88848-1.30856-5.2342 0.16357-1.96283 2.6171-7.03345 0.65428-2.45354 0.81784-1.14498 3.10781-1.30854 1.14498-0.49071-0.16356-1.47212-1.6357-4.57993 2.45354h-0.65427l-1.14499-1.6357-0.81784 0.16357-1.96282 4.41637-0.98142 4.08921-3.21867 7.08344-1.19065-1.04647-1.38793-1.0435-1.96369-10.4095-3.58632-1.38622-2.07681-2.31322-12.2634-2.77587-2.88897-1.04179-8.32758-2.19839-7.98312-1.15661zm131.907 66.8031-3.27138-8.34202-2.28996-9.15984-2.45353-3.27138-2.6171-1.79926-1.63568 1.14499-3.92566 1.79925-1.96282 5.07064-2.78067 3.76208-1.14498 0.65427-1.47213-0.65427s-2.61709-1.47213-2.45352-2.1264 0.4907-5.07063 0.4907-5.07063l3.43495-1.30855 0.81784-3.43495 0.65427-2.61709 2.45354-1.6357-0.32714-10.1413-1.63569-2.28996-1.30855-0.81785-0.81784-2.12639 0.81784-0.81784 1.63568 0.32714 0.16357-1.63569-2.45352-2.28997-1.30856-2.61709h-2.61709l-4.57993-1.47213-5.56134-3.43494h-2.78067l-0.65427 0.65428-0.98142-0.49071-3.1078-2.28996-2.94424 1.79925-2.94424 2.28997 0.32714 3.59851 0.98141 0.32714 2.1264 0.4907 0.4907 0.81784-2.6171 0.81785-2.61709 0.32714-1.47213 1.79925-0.32713 2.1264 0.32713 1.63568 0.32714 5.56135-3.59851 2.12639-0.65428-0.16357v-4.25279l1.30855-2.45352 0.65428-2.45354-0.81785-0.81784-1.96282 0.81784-0.98142 4.25279-2.78066 1.14497-1.79926 1.96283-0.16357 0.98141 0.65427 0.81785-0.65427 2.6171-2.28997 0.4907v1.14499l0.81786 2.45353-1.14499 6.21561-1.63569 4.08922 0.65428 4.7435 0.4907 1.14498-0.81784 2.45353-0.32714 0.81784-0.32713 2.78068 3.59851 6.05203 2.94424 6.54276 1.47211 4.90706-0.81784 4.7435-0.98141 6.05204-2.45353 5.2342-0.32714 2.78067-3.29734 3.12157 4.46065-0.16397 21.6713-2.28996 7.36375-0.99871 0.0975 1.68602 6.93282-1.22678 10.4196-1.52087 3.8997-0.46635 0.13968-0.59449 0.16357-1.47211 2.12638-3.76208 2.02418-1.75837-0.22492-5.11152 1.61585-1.61584 1.10349-0.34699 0.2249-3.59851 1.5539-3.0669 1.0632 0.61337 0.16357 0.65428 0.81785 0.16356 1.96282-0.9814z"/>
<path id="IL" d="m626.855 303.888 0.0316-3.26783 0.57409-4.70081 2.36007-2.95028 1.88868-4.12387 2.25938-4.04249-0.37589-5.3144-2.02888-3.58439-0.0975-3.38618 0.70303-5.33172-0.83516-7.2631-1.07892-15.9637-1.30855-15.1946-0.93317-11.7766-0.27572-0.93227-0.81784-2.6171-1.30855-3.76208-1.63569-1.79926-1.47212-2.6171-0.23633-5.55375-46.337 2.62892 0.23132 2.39995 2.31322 0.69397 0.92528 1.1566 0.46264 1.85057 3.93246 3.46982 0.69398 2.31322-0.69398 3.46982-1.85057 3.70114-0.69395 2.54453-2.31322 1.85058-1.85057 0.69396-5.32039 1.38792-0.69397 1.85058-0.69397 2.08189 0.69397 1.38794 1.85057 1.61925-0.23132 4.16378-1.85058 1.61925-0.69395 1.61925v2.77585l-1.85057 0.46264-1.61926 1.15661-0.23131 1.38794 0.23131 2.08189-1.73491 1.33008-1.04094 2.8337 0.46264 3.70113 2.31321 7.40229 7.40229 7.63361 5.5517 3.70114-0.23131 4.39511 0.92529 1.38793 6.477 0.46264 2.77585 1.38793-0.69396 3.70114-2.31321 6.01436-0.69397 3.2385 2.31321 3.93246 6.477 5.32039 4.62644 0.69397 2.08188 5.08907 2.0819 3.23849-0.92529 3.00718 1.61925 4.16378 1.85057 2.0819 1.43072-0.89108 0.91838-2.09929 2.2392-1.76782 2.15663-0.62165 2.63325 1.19372 3.66981 1.39194 1.20298-0.30175 0.20223-2.28511-1.30249-2.44026 0.30781-2.40477 1.8601-1.36336 3.05822-0.81985 1.27578-0.46394-0.61984-1.40325-0.80071-2.38216 1.44951-0.99254z"/>
<path id="WI" d="m622.326 199.698-0.0675-3.19469-1.19303-4.57994-0.65428-6.2156-1.14497-2.45354 0.98141-3.1078 0.81784-2.94424 1.47212-2.6171-0.65428-3.43494-0.65427-3.59851 0.4907-1.79926 1.96283-2.45354 0.16357-2.78067-0.81784-1.30855 0.65427-2.6171-0.45786-4.21994 2.78067-5.7249 2.94424-6.86989 0.16357-2.28997-0.32714-0.98141-0.81785 0.49071-4.25279 6.37918-2.78067 4.08922-1.96282 1.79926-0.81784 2.28996-1.97803 0.81784-1.14497 1.96283-1.47213-0.32714-0.16357-1.79926 1.30856-2.45352 2.12639-4.74351 1.79926-1.63568 1.00253-2.38568-2.59068-1.92379-1.99813-10.4894-3.58935-1.35782-1.96923-2.33558-12.2729-2.75377-2.90984-1.024-8.31007-2.19287-8.01139-1.17243-3.80961-5.19123-0.75925 0.56055-1.21205-0.16357-0.65429-1.14498-1.34975 0.30005-1.14499 0.16357-1.79925 0.98141-0.98142-0.65427 0.65428-1.96283 1.96282-3.10781 1.14498-1.14498-1.96282-1.47211-2.1264 0.81784-2.94424 1.96282-7.52416 3.27137-2.94424 0.65428-2.94423-0.49071-0.99332-0.88862-2.14169 2.86865-0.23132 2.77586v8.55888l-1.15661 1.61926-5.32039 3.93245-2.31321 6.01436 0.46264 0.23132 2.54454 2.0819 0.69395 3.2385-1.85057 3.23849v3.93247l0.46265 6.70831 3.00717 3.00719h3.46983l1.85057 3.2385 3.46982 0.46264 3.93246 5.78304 7.17097 4.16378 2.08188 2.77586 0.9253 7.51795 0.69396 3.35415 2.31321 1.61925 0.23132 1.38793-2.08189 3.46982 0.23132 3.23851 2.54454 3.93246 2.54454 1.1566 3.00717 0.46264 1.35818 1.39641z"/>
<path id="MO" d="m565.032 251.042-2.54961-3.1237-1.15662-2.31321-65.1169 2.42887-2.31324 0.11566 1.27227 2.54454-0.23132 2.31321 2.54453 3.93247 3.12283 4.16378 3.12284 2.77586 2.18674 0.23132 1.5144 0.92529v3.00718l-1.85056 1.61925-0.46265 2.3132 2.08189 3.46984 2.54455 3.00717 2.54453 1.85057 1.38792 11.7974 0.31785 36.498 0.23132 4.74207 0.46263 5.44706 22.6978-0.87705 23.48-0.69397 21.0502-0.81046 11.7923-0.23302 2.19501 3.46644-0.69227 3.34654-3.12369 2.43141-0.57915 1.85903 5.44198 0.46265 3.94094-0.69397 1.73745-5.55848 0.65911-5.92593 2.12279-2.58532 2.62668-1.50444 0.052-3.08625 1.02801-1.95934-1.71423-2.57379-1.34664 0.99588-2.01614-2.25354-1.3002-4.81517 0.81046-2.54793-1.96708-3.46812-1.85225-4.62981-4.85606-0.80878-7.05106-5.66484-1.73915-4.16209 0.80878-3.2385 2.08358-6.12918 0.46434-2.89743-1.97215-1.04349-6.93626-0.80708-1.04011-1.73237-0.11312-4.2803-5.55171-3.47151-7.05785-7.86324-2.31321-7.40229-0.233-4.2752z"/>
<path id="IA" d="m575.91 201.94 0.26751 2.81909 2.24997 0.58408 0.9652 1.23979 0.50591 1.87726 3.83761 3.3983 0.69397 2.41973-0.6823 3.46489-1.60099 3.27013-0.80878 2.77416-2.1984 1.62095-1.73576 0.57916-5.64487 1.88216-1.40789 3.89412 0.73724 1.38793 1.86224 1.70245-0.28627 4.08394-1.78396 1.55601-0.78052 1.66254 0.12872 2.80909-1.90857 0.46264-1.64464 1.11795-0.28208 1.3686 0.28208 2.13988-1.56933 1.12925-2.49969-3.17027-1.27748-2.47879-66.5118 2.54454-0.92887 0.16739-2.07662-4.56927-0.23132-6.70833-1.61925-4.16379-0.69396-5.32038-2.31322-3.70115-0.92527-4.85774-2.77587-7.63361-1.1566-5.43606-1.38793-2.19755-1.61926-2.77585 1.97705-4.901 1.38793-5.78304-2.77585-2.0819-0.46265-2.77586 0.9253-2.54453h1.73491l83.6297-1.28447 0.8441 4.2325 2.27877 1.5794 0.25974 1.43989-2.0535 3.42931 0.19266 3.24336 2.54455 3.84304 2.55661 1.30889 3.11563 0.50899z"/>
<path id="MN" d="m480.848 130.345-0.46265-8.55889-1.85057-7.40228-1.85057-13.648-0.46265-9.94682-1.85057-3.46982-1.61925-5.08907v-10.4095l0.69396-3.93247-1.84243-5.51602 30.4881 0.03569 0.32713-8.34201 0.65428-0.163569 2.28996 0.490707 1.96282 0.817844 0.81784 5.56134 1.47213 6.21561 1.63568 1.63569h4.90707l0.32714 1.47212 6.37918 0.327138v2.12639h4.90706l0.32714-1.30855 1.14498-1.14498 2.28996-0.654275 1.30855 0.981413h2.94424l3.92565 2.6171 5.39777 2.45353 2.45354 0.490707 0.4907-0.981412 1.47212-0.490707 0.4907 2.94424 2.6171 1.30855 0.49071-0.490707 1.30855 0.163569v2.12639l2.6171 0.981413h3.10781l1.63569-0.817845 3.27137-3.27138 2.6171-0.490706 0.81785 1.79926 0.4907 1.30855h0.98141l0.98141-0.817844 8.99629-0.327137 1.79925 3.10781h0.65428l0.72204-1.09708 4.49232-0.37504-0.61933 2.30637-3.98521 1.85881-9.35492 4.10907-4.8311 2.03059-3.10781 2.6171-2.45354 3.59851-2.28995 3.92565-1.79926 0.81785-4.57993 5.07062-1.30855 0.16357-4.37887 2.78967-2.49195 3.24294-0.23132 3.22906 0.0955 8.1383-1.39228 1.70869-5.14153 3.80435-2.2564 6.05303 2.90565 2.26008 0.68791 3.26507-1.87714 3.27716 0.17281 3.79227 0.37321 6.80984 3.064 3.03743h3.3683l1.91343 3.16958 3.41906 0.50921 3.90472 5.73842 7.17095 4.16534 2.16845 2.90906 0.67907 6.51553-82.1702 1.1583-0.34191-36.098-0.46264-3.00718-4.16379-3.46982-1.15661-1.85057v-1.61926l2.08189-1.61924 1.38793-1.38793z"/>
<path id="KS" d="m513.876 328.209-12.7672 0.20685-46.6331-0.46263-45.0834-2.08192-24.9205-1.27225 3.93975-65.3575 22.3441 0.68314 40.7647 0.85134 44.8242 0.99923h5.15578l2.21019 2.18793 2.04148-0.0216 1.65966 1.02442-0.0632 3.04475-1.85057 1.74574-0.33617 2.25852 1.86483 3.44249 2.98722 3.23278 2.35482 1.63351 1.31612 11.3735z"/>
<path id="NE" d="m491.836 243.542 3.26875 7.10277-0.13015 2.3297 3.50005 5.55873 2.75139 3.18956h-5.10908l-43.9958-0.94977-41.2683-0.9008-22.5149-0.79313 1.08544-21.5796-32.6997-2.95472 4.39511-44.5294 15.7298 1.04095 20.3563 1.1566 18.0431 1.15661 24.0574 1.1566 10.8721-0.46263 2.08189 2.3132 4.85775 3.00719 1.1566 0.92528 4.39511-1.38793 3.93247-0.46264 2.77585-0.23133 1.85057 1.38794 4.10533 1.61925 3.00717 1.61925 0.46265 1.61925 0.92528 2.08189h1.85057l0.8074 0.0467 0.90479 4.73709 2.95473 8.56788 0.57929 3.80105 2.55328 3.81881 0.57631 5.17451 1.62621 4.29042z"/>
<path id="SD" d="m482.071 206.433-0.048-0.58773-2.92989-4.90264 1.88219-4.76773 1.51035-5.95603-2.81471-2.10426-0.38971-2.77584 0.80176-2.5845 3.22614 0.0154-0.12453-5.06524-0.33723-30.5304-0.62502-3.81205-4.1204-3.37025-0.99423-1.69676-0.0632-1.62781 2.04599-1.54745 1.5503-1.68533 0.24786-2.68816-58.9448-1.61924-55.4461-3.4898-5.38813 64.443 14.7625 0.91446 20.1854 1.21985 17.9525 0.93955 24.0574 1.31896 12.1242-0.42965 1.98951 2.27169 5.25596 3.29175 0.77291 0.73128 4.59505-1.46996 6.61775-0.62217 1.69507 1.35205 4.25414 1.61497 2.97983 1.65514 0.40369 1.50132 1.05176 2.26734z"/>
<path id="ND" d="m480.916 130.44-0.62216-8.53323-1.69675-6.89638-1.91382-13.178-0.46264-11.1167-1.75999-3.11346-1.77734-5.25571 0.0316-10.5676 0.63072-3.86923-1.85575-5.5323-28.9804-0.570685-18.8104-0.654275-26.8253-1.30855-23.2172-2.15906-7.07579 67.9698 55.5807 3.38312z"/>
<path id="OH" d="m744.005 195.61-6.16547 4.1012-3.92565 2.28997-3.43494 3.76208-4.08921 3.92565-3.27138 0.81784-2.94424 0.49071-5.56134 2.6171-2.12639 0.16357-3.43494-3.10781-5.23421 0.65428-2.61709-1.47212-2.40918-1.36678-4.95032 0.71171-10.3048 1.6357-11.3392 2.21052 1.30856 14.803 1.79926 13.9034 2.6171 23.7175 0.57249 4.8882 4.17102-0.13054 2.45353-0.81786 3.40351 1.52089 2.09493 4.41635 5.1996-0.0173 1.91407 2.14371 1.78196-0.0661 2.56836-1.3573 2.53373 0.37589 5.48527 0.48838 1.74736-2.15786 2.37334-1.30854 2.09493-0.68889 0.65427 2.78068 1.79927 0.98141 3.51672 2.37174 2.20818-0.0817 1.34886-0.4983 0.18689-2.79413 1.60407-1.47213 0.10037-4.8493 1.03605-4.15756 1.31461-0.60838 1.33695 1.16129 0.5445 1.71705 1.73942-1.04966 0.44416-1.478-1.12987-1.92552 0.0671-2.34175 0.75784-1.08497 2.17817-3.34551 1.06262-1.56156 2.12639 0.49071 2.28997-1.6357 3.10781-3.43494 2.8042-4.12688 0.32412-5.11519 0.4907-5.07064-0.17887-5.36953-0.96611-2.92895 0.35539-1.20382 1.82569-1.77077-2.31581-9.15413z"/>
<path id="IN" d="m626.883 303.512 0.0661-2.89232 0.49071-4.57995 2.28996-2.94422 1.79927-3.92567 2.61709-4.25279-0.4907-5.88849-1.79925-2.78067-0.32714-3.27138 0.81784-5.56135-0.4907-7.03347-1.30857-16.1933-1.30855-15.539-0.98192-11.8584 3.10731 0.90001 1.47212 0.98141 1.14498-0.32713 2.1264-1.96282 2.86297-1.63608 5.15292-0.16395 22.2454-2.28998 5.64155-0.53945 1.52088 16.1446 4.30154 37.2764 0.60552 5.83973-0.37588 2.28997 1.24247 1.81656 0.0975 1.38876-2.55105 1.61839-3.58121 1.56962-3.23993 0.55677-0.60553 4.92439-4.62869 3.35157-2.82943 4.05778 0.32714 2.40478-0.58821 1.55231h-3.36573l-1.60425-1.63568-2.52274 1.2771-2.71463 1.52089 0.16358 3.0905-1.20788 0.26108-0.47341-1.03016-2.19246-1.52089-3.28868 1.35732-1.56963 3.04174-1.45481-0.81784-1.47212-1.6184-4.51704 0.49072-5.65885 0.98141z"/>
<path id="HI" d="m235.839 525.44 1.96283-3.59854 2.28997-0.32713 0.32714 0.81784-2.12641 3.10783zm10.3049-3.7621 6.21565 2.6171 2.1264-0.32714 1.63569-3.92567-0.65427-3.43495-4.25282-0.49071-4.08924 1.79926zm31.0782 10.1413 3.76209 5.56135 2.45355-0.32713 1.14499-0.49071 1.47212 1.30856 3.7621-0.16357 0.98142-1.47212-2.94426-1.79927-1.96283-3.76211-2.12641-3.59852-5.8885 2.94425zm20.4462 8.99633 1.30856-1.96284 4.74351 0.98141 0.65428-0.49071 6.21564 0.65428-0.32714 1.30856-2.61711 1.47212-4.41638-0.32714zm5.3978 5.23421 1.96283 3.92567 3.10781-1.14498 0.32715-1.63571-1.63569-2.1264-3.7621-0.32713zm7.03348-1.14498 2.28998-2.94425 4.74351 2.45354 4.41637 1.14499 4.41639 2.78068v1.96283l-3.59852 1.79927-4.9071 0.98141-2.45354-1.47212zm16.8477 15.7027 1.63569-1.30854 3.43497 1.6357 7.68776 3.59852 3.43496 2.1264 1.63568 2.45355 1.96284 4.41637 4.08924 2.61711-0.32713 1.30857-3.92567 3.27139-4.25281 1.47212-1.47212-0.65427-3.10783 1.79925-2.45354 3.2714-2.28997 2.94425-1.79928-0.16357-3.59852-2.61712-0.32713-4.57994 0.65427-2.45354-1.63569-5.72493-2.12641-1.79928-0.16357-2.61711 2.28998-0.98141 2.1264-3.10782 0.49071-0.98142-1.63569-1.79927z"/>
<path id="AK" d="m159.943 459.03-0.32714 86.3647 1.63569 0.98141 3.10783 0.16357 1.47211-1.14498h2.61711l0.16358 2.94425 7.03349 6.86992 0.49071 2.61711 3.43496-1.96284 0.65428-0.16357 0.32714-3.10781 1.47211-1.6357 1.145-0.16356 1.96283-1.47214 3.10782 2.12641 0.65428 2.94426 1.96283 1.14498 1.14499 2.45354 3.92568 1.79926 3.43495 6.05208 2.78068 3.92566 2.28997 2.78069 1.47214 3.76209 5.07064 1.79927 5.23424 2.1264 0.98141 4.41639 0.49071 3.10781-0.98141 3.43497-1.79928 2.28997-1.63569-0.81785-1.47212-3.10782-2.78069-1.47212-1.79926-1.145-0.81785 0.81785 1.47213 2.7807 0.16356 3.76209-1.14498 0.4907-1.96283-1.96283-2.1264-1.30855 0.4907 1.63569 1.30855 1.79927-0.81784 0.81784s-0.81784-0.32713-1.30855-0.98142c-0.49072-0.65427-2.12641-3.43495-2.12641-3.43495l-0.98142-2.28998s-0.32713 1.30856-0.98142 0.98141c-0.65428-0.32714-1.30855-1.47211-1.30855-1.47211l1.79926-1.96284-1.47213-1.47213v-5.07066h-0.81784l-0.81784 3.43496-1.145 0.49072-0.98141-3.76211-0.65428-3.7621-0.81785-0.4907 0.32715 5.72494v1.14497l-1.47214-1.30854-3.59852-6.05208-2.12641-0.4907-0.65427-3.76211-1.6357-2.94424-1.6357-1.145v-2.28997l2.12641-1.30856-0.49071-0.32713-2.61711 0.65427-3.43496-2.45353-2.61712-2.94426-4.90708-2.61712-4.08925-2.61711 1.30857-3.27139v-1.63569l-1.79927 1.63569-2.94425 1.14499-3.7621-1.14499-5.72494-2.45353h-5.56135l-0.65428 0.4907-6.54278-3.92568-2.12641-0.32713-2.78068-5.8885-3.59853 0.32714-3.59854 1.47212 0.49072 4.57995 1.14498-2.94425 0.98143 0.32714-1.47214 4.41637 3.27139-2.78068 0.65428 1.6357-3.92567 4.41637-1.30855-0.32714-0.49071-1.96284-1.30856-0.81784-1.30855 1.14499-2.78068-1.79926-3.10783 2.12641-1.79925 2.1264-3.43497 2.1264-4.74352-0.16357-0.4907-2.1264 3.76209-0.65429v-1.30854l-2.28998-0.6543 0.98143-2.45353 2.28997-3.92567v-1.79926l0.16357-0.81785 4.41638-2.28998 0.98141 1.30856h2.78069l-1.30855-2.61711-3.76212-0.32714-5.07064 2.78068-2.45355 3.43495-1.79926 2.61713-1.14499 2.28997-4.2528 1.47212-3.10783 2.61711-0.327138 1.6357 2.28997 0.98142 0.81786 2.12639-2.78069 3.2714-6.54277 4.25281-7.85135 4.25281-2.1264 1.14498-5.39779 1.145-5.3978 2.28996 1.79927 1.30856-1.47213 1.47212-0.490707 1.14499-2.78068-0.98142-3.27139 0.16357-0.817854 2.28998h-0.981413l0.327138-2.45355-3.59853 1.30857-2.94425 0.98141-3.43496-1.30856-2.94425 1.96283h-3.27139l-2.1264 1.30857-1.6357 0.81784-2.1264-0.32714-2.61711-1.14498-2.28997 0.65428-0.981417 0.98141-1.6357-1.14498v-1.96284l3.10782-1.30856 6.37921 0.65429 4.41638-1.63571 2.1264-2.12639 2.94425-0.65429 1.79926-0.81785 2.78068 0.16357 1.6357 1.30857 0.981413-0.32714 2.28997-2.78068 3.10783-0.98143 3.43495-0.65427 1.30856-0.32714 0.654275 0.4907h0.817854l1.30855-3.7621 4.08924-1.47211 1.96284-3.7621 2.28998-4.57996 1.6357-1.47212 0.327138-2.61711-1.6357 1.30855-3.43497 0.65429-0.654275-2.45355-1.30855-0.32714-0.981423 0.98141-0.163568 2.94426-1.47213-0.16357-1.47212-5.8885-1.30856 1.30854-1.14498-0.4907-0.327137-1.96283-4.08924 0.16357-2.1264 1.14498-2.61711-0.32713 1.47212-1.47213 0.490706-2.61711-0.654274-1.96284 1.47213-0.98141 1.30855-0.16357-0.654275-1.79927v-4.41637l-0.981413-0.98142-0.817854 1.47212h-6.21564l-1.47212-1.30856-0.654279-3.92566-2.1264-3.59854v-0.98141l2.1264-0.81785 0.16357-2.12641 1.14499-1.14498-0.817847-0.4907-1.30856 0.4907-1.14499-2.78068 0.981417-5.07066 4.57995-3.27138 2.61711-1.6357 1.96284-3.7621 2.78069-1.30856 2.61711 1.145 0.327138 2.45354 2.45354-0.32716 3.27139-2.45353 1.6357 0.65428 0.981412 0.65428h1.6357l2.28998-1.30856 0.817854-4.41638s0.327138-2.94424 0.981413-3.43496c0.654275-0.4907 0.981413-0.98141 0.981413-0.98141l-1.14498-1.96284-2.61711 0.81785-3.2714 0.81784-1.96284-0.4907-3.59852-1.79927-5.07065-0.16357-3.59853-3.76209 0.490706-3.92567 0.654285-2.45355-2.1264-1.79926-1.96284-3.76211 0.490708-0.81784 6.86992-0.49071h2.1264l0.981413 0.98141h0.654285l-0.163568-1.63569 3.92566-0.65427 2.61711 0.32713 1.47213 1.14499-1.47213 2.12641-0.490706 1.47212 2.78069 1.6357 5.07065 1.79926 1.79927-0.98141-2.28997-4.41637-0.981424-3.2714 0.981424-0.81785-3.43496-1.96283-0.490708-1.145 0.490708-1.63568-0.817846-3.92567-2.94426-4.74352-2.45354-4.25281 2.94426-1.96284h3.27139l1.79927 0.65428 4.25281-0.16356 3.7621-3.59853 1.14499-3.10783 3.7621-2.45354 1.63569 0.98142 2.78068-0.65428 3.7621-2.12641 1.145-0.16357 0.98141 0.81786 4.57994-0.16358 2.78068-3.10781h1.14499l3.59853 2.45353 1.96283 2.12641-0.4907 1.14499 0.65427 1.14498 1.6357-1.63569 3.92567 0.32714 0.32714 3.76209 1.96284 1.47213 7.19705 0.65428 6.37922 4.2528 1.47211-0.98141 5.23424 2.61712 2.1264-0.65428 1.96284-0.81786 4.90708 1.96284zm-116.462 29.279 2.1264 5.39779-0.16357 0.98142-2.94425-0.32714-1.79926-4.08924-1.79926-1.47212h-2.45354l-0.163569-2.61712 1.79926-2.45354 1.14499 2.45354 1.47212 1.47213zm-2.61711 33.8589 3.7621 0.81785 3.7621 0.98141 0.817848 0.98143-1.6357 3.76209-3.10782-0.16357-3.43496-3.59852zm-20.9369-14.2305 1.14499 2.6171 1.14499 1.6357-1.14499 0.81784-2.1264-3.10781v-1.96283zm-13.9034 73.9334 3.43496-2.28998 3.43496-0.98142 2.61711 0.32714 0.490708 1.63569 1.96283 0.49071 1.96283-1.96283-0.327139-1.63569 2.78068-0.65428 2.94425 2.61711-1.14499 1.79926-4.41638 1.14499-2.78068-0.4907-3.7621-1.14499-4.41638 1.47212-1.6357 0.32714zm49.5616-4.57995 1.6357 1.96283 2.1264-1.63569-1.47212-1.30857zm2.94425 3.10781 1.14498-2.28997 2.1264 0.32714-0.817844 1.96283zm23.8811-1.96283 1.47213 1.79926 0.981424-1.14498-0.817855-1.96284zm8.83276-12.5948 1.14499 5.8885 2.94425 0.81785 5.07065-2.94426 4.41638-2.61711-1.63568-2.45354 0.4907-2.45354-2.12641 1.30856-2.94424-0.81786 1.63568-1.14497 1.96284 0.81784 3.92567-1.79927 0.49071-1.47212-2.45354-0.81785 0.81784-1.96284-2.78068 1.96284-4.74352 3.59853-4.90708 2.94425zm42.8552-20.119 2.45354-1.47213-0.98142-1.79927-1.79926 0.98142z"/>
<path id="NM" d="m291.554 429.018-0.78457-4.80415 8.74582 0.5316 30.5279 2.98068 27.59 1.70984 2.24142-18.9283 3.9029-56.5356 1.75819-19.6181 1.59025 0.13007 0.83515-11.2952-105.232-10.7615-17.7039 121.856 15.6432 2.01263 1.30855-10.1413z"/>
<path id="WY" d="m364.631 144.967-108.003-13.6159-14.2497 89.5022 114.602 13.7459z"/>
<path id="MT" d="m373.568 57.6416-31.0364-2.84098-29.606-3.59851-29.6059-4.08922-32.7138-5.39777-18.6468-3.43494-33.1099-7.01457-4.53189 21.5995 3.46982 7.6336-1.38794 4.62643 1.85057 4.62643 3.23852 1.38793 4.67536 10.8966 2.72692 3.21402 0.46263 1.15661 3.46983 1.15661 0.46264 2.08188-7.17096 17.8118v2.54453l2.54454 3.2385h0.92527l4.85775-3.00718 0.69397-1.15661 1.61925 0.69396-0.23132 5.3204 2.77586 12.7227 3.00717 2.54452 0.92528 0.69397 1.85058 2.31321-0.46265 3.46983 0.69397 3.46981 1.15661 0.92529 2.31321-2.31321h2.77585l3.23851 1.61925 2.54453-0.92529h4.16379l3.70113 1.61925 2.77587-0.46264 0.46263-3.00719 3.00718-0.69395 1.38793 1.38793 0.46265 3.23849 1.4427 0.84449 1.90922-11.165 108.006 13.5874z"/>
<path id="CO" d="m384.518 324.753 4.96112-87.344-114.727-12.7932-12.358 88.9772z"/>
<path id="ID" d="m150.232 178.567 8.87441-35.6365 1.38793-4.27945 2.54453-6.01435-1.27227-2.31321-2.54454 0.11566-0.80962-1.04095 0.46265-1.1566 0.34697-3.12285 4.51077-5.55172 1.85057-0.46263 1.15661-1.15661 0.5783-3.2385 0.92528-0.69396 3.93247-5.89869 3.93247-4.39511 0.23132-3.8168-3.46983-2.6602-1.55367-4.45293 13.7857-64.0894 13.6772 2.55795-4.46012 21.6354 3.60238 7.57371-1.59977 4.71586 1.9931 4.69602 3.17527 1.27001 3.88061 9.6694 3.55415 4.48953 0.51324 1.15661 3.38039 1.15661 0.3732 2.12183-7.05329 17.5812-0.16713 2.59621 2.66217 3.36092 0.91577-0.0495 4.96926-3.06132 0.68542-1.10789 1.58075 0.66663-0.28172 5.41692 2.77158 12.7312 3.96408 3.21543 1.70102 2.19101-0.72507 4.13207 1.07881 2.84055 1.07416 1.10416 2.50856-2.37918 2.88178 0.0495 2.95371 1.35096 2.81284-0.68998 3.83904-0.16237 4.02587 1.61925 2.77587-0.30027 0.5026-3.07316 2.96721-0.77386 1.27505 1.53381 0.44613 2.97972 1.44115 1.22753-8.48499 54.2415s-89.0044-16.8978-96.0803-18.4192z"/>
<path id="UT" d="m262.562 313.766-84.7376-12.0124 20.8306-113.87 47.3325 8.84837-1.50232 10.7559-2.33891 13.3282 7.89985 0.93933 16.6002 1.82609 8.3079 0.86574z"/>
<path id="AZ" d="m146.622 387.146-2.65802 2.1838-0.32714 1.47213 0.49071 0.98141 19.1375 10.7955 12.2677 7.68773 14.8848 8.66915 17.0112 10.1413 12.4312 2.45354 25.2457 2.73684 17.4593-120.533-84.7241-12.0579-3.12889 16.6062-1.62526 0.0155-1.73491 2.66019-2.54453-0.11567-1.27227-2.77585-2.77585-0.34698-0.9253-1.1566h-0.92527l-0.9253 0.5783-1.96622 1.04095-0.11565 7.05529-0.23134 1.73491-0.57829 12.7227-1.50359 2.19755-0.57831 3.35416 2.77586 4.97342 1.27226 5.89869 0.80964 1.04095 1.04094 0.5783-0.11567 2.31321-1.61924 1.38792-3.46982 1.73492-1.96623 1.96623-1.50359 3.70113-0.57831 4.97342-2.89152 2.77585-2.08188 0.69397 0.13729 0.83968-0.46265 1.73491 0.46265 0.80962 3.70114 0.57829-0.57831 2.77586-1.50359 2.19755z"/>
<path id="NV" d="m198.711 187.766-23.918 130.343-1.85387 0.35327-1.59133 2.43459-2.40095 0.0108-1.48933-2.77585-2.64937-0.38289-0.78003-1.1207-1.05008-0.0546-2.81116 1.6637-0.31393 6.86558-0.36636 5.84536-0.35268 8.69425-1.46419 2.11382-2.46771-1.08671-69.8953-105.431 19.2133-68.3827z"/>
<path id="OR" d="m150.477 177.604 8.95417-35.2123 1.06319-4.27944 2.38216-5.68961-0.62277-1.17661-2.54455-0.0467-1.29673-1.69043 0.46264-1.48135 0.50935-3.28521 4.51078-5.55172 1.85057-1.11212 1.1566-1.15661 1.50358-3.60772 4.09484-5.73632 3.60772-3.90799 0.23132-3.49206-3.30745-2.49782-1.80446-4.69743-12.8133-3.65461-15.2672-3.58548-15.6142 0.115656-0.46264-1.38792-5.55172 2.08189-4.51077-0.578306-2.42887-1.61925-1.27227 0.693971-4.74208-0.231331-1.73491-1.38792-5.32039-2.08189-0.80963 0.115666-4.39511-1.5036-1.96623 1.85057-6.24568-0.346975-6.01435-4.16379 0.693962-0.809626 0.231319-7.86493-2.31321-3.93246-4.16379-0.578306-0.693961-2.54453-2.38172-0.472073-5.86697 2.08309-2.28996 6.54275-3.27138 10.1413-3.27138 6.54275-5.07063 14.2305-6.54275 13.7398-8.17844 12.7584-1.96283 2.94424-0.817843 8.66914 0.390652 12.2228z"/>
<path id="WA" d="m103.278 7.70163 4.41636 1.47212 9.81413 2.78067 8.66914 1.96282 20.2825 5.72491 23.2268 5.72491 15.4028 3.24503-13.7933 64.3364-12.5919-3.56693-15.6911-3.61283-15.4091 0.03363-0.46095-1.36057-5.66531 2.20502-4.64968-0.745441-2.17231-1.60275-1.32871 0.665743-4.79156-0.141898-1.71841-1.36556-5.32517-2.13724-0.74365 0.148652-4.44093-1.54244-1.91565 1.83883-6.33987-0.30226-5.99565-4.1744 0.788152-0.943774 0.122654-7.76808-2.30894-3.88503-4.16378-0.614206-0.685407-2.54025-2.30237-0.462326-3.59691 1.2451-2.28996-3.25725 0.327137-2.94424 2.78067-0.327138 1.63569-4.08922-2.6171-1.14498 0.163569-3.76208 4.41636-0.654274-2.78067-2.78067-1.47212-7.19703 0.654276-2.94424v-8.01487l-1.79926-3.27138 2.28996-9.48699 2.12639 0.490706 2.45353 2.94424 2.78067 2.6171 3.27138 1.96282 4.57993 2.12639 3.10781 0.654275 2.94424 1.47212 3.43495 0.981413 2.28996-0.163568v-2.45353l1.30855-1.14498 2.12639-1.30855 0.32715 1.14498 0.32713 1.79926-2.28996 0.490706-0.327141 2.12639 1.79925 1.47212 1.14499 2.45353 0.65427 1.96282 1.47212-0.163568 0.16357-1.30855-0.98141-1.30855-0.49071-3.27138 0.81784-1.79926-0.65427-1.47212v-2.28996l1.79926-3.59851-1.14499-2.6171-2.45353-4.90706 0.32715-0.817844zm-9.56832 6.04954 2.04462-0.163569 0.490707 1.39034 1.55391-1.6357h2.37176l0.81784 1.55391-1.55391 1.71748 0.654288 0.817855-0.736067 2.04461-1.39034 0.408917s-0.899634 0.08179-0.899634-0.245347c0-0.327138 1.47213-2.61711 1.47213-2.61711l-1.71748-0.572496-0.327138 1.47213-0.736065 0.654276-1.55391-2.28997z"/>
<path id="CA" d="m146.402 386.71 3.98659-0.49439 1.50358-2.03518 0.55097-2.97581-3.59344-0.59709-0.52024-0.6761 0.48313-2.0563-0.16116-0.59663 1.94527-0.62691 3.0787-2.86612 0.58842-5.05406 1.39619-3.44227 1.96623-2.19183 3.56041-1.60844 1.67392-1.62377 0.0695-2.13373-1.00506-0.58686-1.03522-1.08539-1.16886-5.91749-2.7169-4.88711 0.57249-3.54637-2.44814-1.04146-69.8766-105.408 19.1252-68.3995-67.8717-15.8833-1.52468 4.78912-0.163569 7.52416-5.2342 11.9405-3.10781 2.61711-0.327137 1.14498-1.79926 0.81785-1.47212 4.25278-0.817843 3.27138 2.78067 4.25279 1.63569 4.25278 1.14498 3.59851-0.327137 6.54276-1.79926 3.1078-0.654275 5.88848-0.981413 3.76208 1.79926 3.92565 2.78067 4.57993 2.28996 4.90706 1.30855 4.08922-0.327137 3.27138-0.327138 0.4907v2.12639l5.72491 6.37919-0.490706 2.45353-0.654275 2.28997-0.654275 1.96282 0.163568 8.34201 2.12639 3.76208 1.96283 2.61709 2.78067 0.49072 0.981413 2.78066-1.14498 3.59851-2.1264 1.6357h-1.14498l-0.817843 3.92564 0.490706 2.94424 3.27138 4.41636 1.63569 5.39777 1.47212 4.74349 1.30855 3.10781 3.43494 5.88848 1.47212 2.61709 0.490707 2.94424 1.63569 0.98141v2.45354l-0.817843 1.96283-1.79926 7.19702-0.490707 1.96282 2.45353 2.78067 4.25279 0.49071 4.57992 1.79926 3.92565 2.12639h2.94424l2.94424 3.1078 2.6171 4.90707 1.14498 2.28996 3.92565 2.1264 4.90706 0.81784 1.47212 2.1264 0.654275 3.27137-1.47212 0.65428 0.327138 0.98141 3.27138 0.81784 2.78067 0.16358 3.19719-1.70677 3.92565 4.25279 0.817844 2.28997 2.61711 4.25278 0.32714 3.27138v9.48699l0.4907 1.79925 10.1413 1.47213 19.9554 2.78066zm-89.1756-44.2327 1.30855 1.55391-0.163568 1.30856-3.27139-0.0818-0.572494-1.22677-0.654277-1.47213zm1.96283 0 1.22677-0.65427 3.59853 2.1264 3.10782 1.22676-0.899631 0.65429-4.57994-0.24536-1.63569-1.63569zm20.9369 20.0372 1.79926 2.37175 0.817854 0.98142 1.55391 0.57249 0.572486-1.47213-0.981413-1.79926-2.69889-2.04461-1.0632 0.16357zm-1.47213 8.75095 1.79927 3.18961 1.22677 1.96284-1.47213 0.24534-1.30855-1.22676s-0.736065-1.47213-0.736065-1.88106v-2.20818z"/>
</g>
</g>
</svg>